<?xml version="1.0" standalone="no"?>
<!DOCTYPE svg PUBLIC "-//W3C//DTD SVG 20010904//EN"
 "http://www.w3.org/TR/2001/REC-SVG-20010904/DTD/svg10.dtd">
<svg version="1.0" xmlns="http://www.w3.org/2000/svg"
 width="500.000000pt" height="500.000000pt" viewBox="0 0 500.000000 500.000000"
 preserveAspectRatio="xMidYMid meet">

<g transform="translate(0.000000,500.000000) scale(0.100000,-0.100000)"
fill="#000000" stroke="none">
<path d="M0 2500 l0 -2500 2500 0 2500 0 0 2500 0 2500 -2500 0 -2500 0 0
-2500z m2845 821 l0 -143 -293 -114 c-162 -62 -300 -118 -308 -125 -20 -16
-18 -85 2 -93 8 -3 137 41 287 99 149 58 280 105 291 103 20 -3 21 -11 24
-129 2 -96 -1 -129 -11 -137 -7 -6 -53 -27 -103 -45 l-89 -34 -3 -124 c-2 -88
-7 -128 -17 -139 -23 -26 -231 -124 -249 -117 -14 6 -16 32 -16 212 l0 205 25
12 c47 21 55 1 55 -147 0 -155 4 -163 68 -135 l42 19 0 129 c0 92 4 132 13
139 6 5 46 22 87 37 107 40 120 50 120 89 0 18 -5 38 -11 44 -13 13 -29 8
-348 -116 -181 -71 -237 -89 -247 -80 -19 16 -20 264 -1 272 6 3 140 55 296
116 157 62 291 117 298 123 21 17 13 102 -9 106 -18 4 -273 -92 -295 -110 -7
-6 -13 -26 -13 -44 0 -28 -5 -36 -26 -44 -41 -16 -54 2 -54 76 0 36 5 66 11
70 33 20 437 172 454 171 19 -2 20 -9 20 -146z m-757 -1145 c5 -26 -15 -36
-75 -36 -52 0 -53 0 -53 -30 0 -29 1 -30 50 -30 36 0 52 -4 56 -15 10 -26 -16
-45 -62 -45 l-44 0 0 -55 c0 -52 -1 -55 -25 -55 l-25 0 0 145 0 146 87 -3 c77
-3 88 -5 91 -22z m220 -123 l3 -143 -31 0 -30 0 0 129 c0 146 4 163 34 159 20
-3 21 -9 24 -145z m236 25 l0 -118 63 0 c61 0 63 -1 63 -25 0 -25 -1 -25 -90
-25 l-90 0 0 138 c0 76 3 142 7 146 4 4 16 6 28 4 19 -3 20 -10 19 -120z m332
114 c6 -4 27 -46 45 -94 19 -49 37 -88 40 -88 4 0 22 42 41 93 34 88 56 114
78 90 4 -4 10 -69 12 -143 l3 -135 -25 0 c-23 0 -25 4 -30 60 l-5 60 -18 -51
c-10 -29 -26 -59 -36 -68 -16 -15 -19 -15 -34 2 -9 9 -24 36 -35 60 -23 51
-32 45 -32 -20 0 -45 -2 -48 -25 -48 l-25 0 0 129 c0 158 7 179 46 153z m-568
-494 c-3 -7 -14 -14 -26 -16 -28 -4 -29 -22 -2 -22 25 0 26 -17 1 -25 -10 -3
-21 -15 -24 -25 -11 -43 -27 -19 -27 40 l0 60 41 0 c28 0 39 -4 37 -12z m82
-48 c0 -36 3 -40 25 -40 14 0 25 -4 25 -10 0 -5 -16 -10 -35 -10 l-35 0 0 50
c0 28 5 50 10 50 6 0 10 -18 10 -40z m188 28 c19 -19 14 -65 -9 -81 -43 -31
-89 15 -69 68 7 19 17 25 38 25 15 0 33 -5 40 -12z m103 -10 l0 -23 11 23 c14
27 38 29 38 2 0 -11 5 -20 10 -20 6 0 10 9 10 20 0 12 7 20 16 20 10 0 14 -6
11 -14 -3 -8 -9 -31 -13 -50 -7 -41 -30 -48 -43 -14 l-8 23 -7 -23 c-11 -34
-34 -26 -45 16 -15 50 -14 62 4 62 9 0 15 -9 16 -22z"/>
<path d="M2525 1660 c-9 -15 5 -52 18 -47 15 5 16 49 0 54 -6 2 -14 -1 -18 -7z"/>
</g>
</svg>
