<?xml version="1.0" standalone="no"?>
<!DOCTYPE svg PUBLIC "-//W3C//DTD SVG 20010904//EN"
 "http://www.w3.org/TR/2001/REC-SVG-20010904/DTD/svg10.dtd">
<svg version="1.0" xmlns="http://www.w3.org/2000/svg"
 width="500.000000pt" height="500.000000pt" viewBox="0 0 500.000000 500.000000"
 preserveAspectRatio="xMidYMid meet">

<g transform="translate(0.000000,500.000000) scale(0.100000,-0.100000)"
fill="#0xFF0E1324" stroke="none">
<path d="M0 2500 l0 -2500 2500 0 2500 0 0 2500 0 2500 -2500 0 -2500 0 0
-2500z m3478 1594 c22 -25 22 -26 22 -384 0 -358 0 -359 -22 -384 -17 -19
-239 -108 -868 -351 -465 -179 -854 -335 -865 -346 -18 -17 -20 -33 -20 -128
0 -102 2 -111 24 -135 16 -17 35 -26 54 -26 17 0 379 135 805 300 426 165 788
300 803 300 87 0 89 -10 89 -398 0 -299 -2 -332 -17 -351 -12 -14 -117 -60
-287 -125 -148 -58 -278 -114 -290 -125 -20 -21 -21 -32 -26 -371 -4 -293 -7
-352 -20 -364 -29 -27 -648 -336 -675 -336 -16 0 -38 11 -56 29 l-29 29 0 541
c0 383 3 547 11 565 14 29 85 66 129 66 21 0 39 -9 55 -26 l25 -27 0 -369 c0
-262 3 -376 12 -391 32 -61 80 -61 197 -2 141 70 131 38 131 440 0 321 1 344
19 366 14 18 91 52 281 124 144 55 273 110 286 122 22 21 24 29 24 127 0 96
-2 107 -23 132 -16 18 -33 27 -53 27 -16 0 -379 -136 -807 -302 -428 -165
-791 -301 -806 -301 -16 0 -39 9 -52 19 l-24 19 -3 329 c-2 180 0 343 3 361 3
18 16 39 29 47 12 8 384 155 827 325 442 171 824 321 849 333 25 12 51 33 57
47 19 37 17 223 -2 260 -17 33 -43 50 -77 50 -32 0 -815 -304 -839 -326 -15
-13 -19 -31 -19 -83 0 -121 -18 -153 -103 -180 -44 -15 -91 -2 -107 30 -6 10
-10 94 -10 187 0 162 1 169 23 189 16 16 783 318 1257 496 26 10 64 -3 88 -29z"/>
</g>
</svg>
